<svg id="Layer_1" data-name="Layer 1" xmlns="http://www.w3.org/2000/svg" viewBox="0 0 192 77.76"><defs><style>.cls-1{fill:none;stroke:#e5e5e5;stroke-miterlimit:10;stroke-width:0.2px;}</style></defs><path class="cls-1" d="M0,21.2c35-12.86,71,1.14,105.85.32l9.59.51,9.57.46c3.19.15,6.37.29,9.55.45,19.44,1.4,39.44-2.6,58.26-1.2"/><path class="cls-1" d="M0,25.42c32-14.08,66,.92,99.89-.74l9.57.14L119,25l4,.08c3.25.06,6.5.3,9.73.64,21.17,2.19,50.14-1.16,60.46.46"/><path class="cls-1" d="M0,41.85c32-15.51,68-1.51,102.3-.8l7.22.6,4.9.39a98,98,0,0,1,10.65,1.46c22.94,4.34,45.51.77,69.37-.21"/><path class="cls-1" d="M-.07,46.57C31,32.34,65,44.34,97.9,44.86l8,.4,1.87.09a96.19,96.19,0,0,1,14.35,1.88c24.34,4.93,49,3.85,72.41,1"/><path class="cls-1" d="M-.44,58.38c32.42-10,65.42-6,98.84-7.31,2.88,0,5.74.1,8.58.27h.09a53.35,53.35,0,0,1,15.13,4c23.52,10,46.8,9.66,71.9,5.38"/><path class="cls-1" d="M.57,37.05c28.75-5.14,56.75-9.14,85.48-9q4.4,0,8.78.25c5.83.28,11.66.82,17.5,1.57q1.07.14,2.13.3a49.37,49.37,0,0,1,13.29,4.16c21.14,9.82,44.26,11.15,66.17,5.61"/><path class="cls-1" d="M-.76,9.91C33,1.34,68,10.34,103,9.36c3.26,0,6.51.11,10,.23,3.35,0,6.69.06,10,.08,8.92,0,17.82.06,26.68.15,2.22,0,4.43,0,6.63.08a85.72,85.72,0,0,0,15,0l8.38-.17q5.83.09,11.69.24"/></svg>